<svg width="572" height="86" viewBox="0 0 572 86" fill="none" xmlns="http://www.w3.org/2000/svg">
<path d="M21.568 46.336C17.088 46.336 13.2267 45.376 9.984 43.456C6.784 41.4933 4.30933 38.784 2.56 35.328C0.853333 31.8293 0 27.7973 0 23.232C0 18.6667 0.853333 14.6347 2.56 11.136C4.30933 7.63733 6.784 4.90667 9.984 2.944C13.2267 0.981333 17.088 0 21.568 0C26.9867 0 31.424 1.344 34.88 4.032C38.336 6.72 40.4907 10.5173 41.344 15.424H31.936C31.3813 13.0347 30.208 11.1787 28.416 9.856C26.6667 8.49067 24.3627 7.808 21.504 7.808C18.8587 7.808 16.576 8.448 14.656 9.728C12.7787 10.9653 11.328 12.736 10.304 15.04C9.28 17.3013 8.768 20.032 8.768 23.232C8.768 26.3893 9.28 29.12 10.304 31.424C11.328 33.728 12.7787 35.4987 14.656 36.736C16.576 37.9733 18.8587 38.592 21.504 38.592C24.3627 38.592 26.6667 37.9733 28.416 36.736C30.1653 35.456 31.3173 33.6853 31.872 31.424H41.344C40.4907 36.0747 38.336 39.7227 34.88 42.368C31.424 45.0133 26.9867 46.336 21.568 46.336ZM66.066 46.336C62.7807 46.336 59.794 45.6747 57.106 44.352C54.418 43.0293 52.2847 41.0453 50.706 38.4C49.1273 35.7547 48.338 32.384 48.338 28.288V0.767998H56.978V28.352C56.978 30.5707 57.3407 32.448 58.066 33.984C58.7913 35.4773 59.8367 36.5867 61.202 37.312C62.61 38.0373 64.274 38.4 66.194 38.4C68.1567 38.4 69.8207 38.0373 71.186 37.312C72.594 36.5867 73.6607 35.4773 74.386 33.984C75.1113 32.448 75.474 30.5707 75.474 28.352V0.767998H84.114V28.288C84.114 32.384 83.3033 35.7547 81.682 38.4C80.0607 41.0453 77.8633 43.0293 75.09 44.352C72.3593 45.6747 69.3513 46.336 66.066 46.336ZM92.5345 45.568V0.767998H109.239C112.865 0.767998 115.852 1.38667 118.199 2.624C120.545 3.86133 122.295 5.52533 123.447 7.616C124.599 9.664 125.175 11.9467 125.175 14.464C125.175 16.8533 124.62 19.0933 123.511 21.184C122.401 23.232 120.652 24.896 118.263 26.176C115.916 27.4133 112.887 28.032 109.175 28.032H101.175V45.568H92.5345ZM115.767 45.568L106.551 25.856H115.895L125.623 45.568H115.767ZM101.175 21.76H108.727C111.329 21.76 113.249 21.12 114.487 19.84C115.724 18.56 116.343 16.8747 116.343 14.784C116.343 12.6933 115.724 11.0507 114.487 9.856C113.292 8.61867 111.372 8 108.727 8H101.175V21.76ZM129.901 45.568L146.286 0.767998H156.078L172.398 45.568H163.246L151.149 10.624L138.99 45.568H129.901ZM137.134 35.392L139.438 28.672H162.222L164.462 35.392H137.134ZM183.967 45.568V7.744H170.846V0.767998H205.599V7.744H192.543V45.568H183.967ZM211.722 45.568V0.767998H241.162V7.744H220.362V19.456H239.242V26.176H220.362V38.592H241.162V45.568H211.722ZM249.035 45.568V0.767998H264.01C269.216 0.767998 273.504 1.70667 276.875 3.584C280.288 5.41867 282.805 8.02133 284.427 11.392C286.091 14.72 286.923 18.6453 286.923 23.168C286.923 27.6907 286.091 31.6373 284.427 35.008C282.805 38.336 280.309 40.9387 276.938 42.816C273.568 44.6507 269.259 45.568 264.01 45.568H249.035ZM257.675 38.144H263.562C267.232 38.144 270.112 37.5467 272.203 36.352C274.336 35.1573 275.851 33.4507 276.747 31.232C277.643 28.9707 278.09 26.2827 278.09 23.168C278.09 20.0107 277.643 17.3227 276.747 15.104C275.851 12.8427 274.336 11.1147 272.203 9.92C270.112 8.72533 267.232 8.128 263.562 8.128H257.675V38.144ZM309.347 45.568V0.767998H317.987V38.848H337.635V45.568H309.347ZM361.707 46.336C357.355 46.336 353.515 45.3547 350.187 43.392C346.859 41.4293 344.256 38.72 342.378 35.264C340.501 31.7653 339.562 27.7333 339.562 23.168C339.562 18.6027 340.501 14.592 342.378 11.136C344.256 7.63733 346.859 4.90667 350.187 2.944C353.515 0.981333 357.355 0 361.707 0C366.101 0 369.963 0.981333 373.291 2.944C376.619 4.90667 379.2 7.63733 381.035 11.136C382.912 14.592 383.851 18.6027 383.851 23.168C383.851 27.7333 382.912 31.7653 381.035 35.264C379.2 38.72 376.619 41.4293 373.291 43.392C369.963 45.3547 366.101 46.336 361.707 46.336ZM361.707 38.592C364.437 38.592 366.784 37.9733 368.747 36.736C370.752 35.456 372.309 33.664 373.419 31.36C374.528 29.056 375.083 26.3253 375.083 23.168C375.083 19.968 374.528 17.2373 373.419 14.976C372.309 12.672 370.752 10.9013 368.747 9.664C366.784 8.42666 364.437 7.808 361.707 7.808C359.019 7.808 356.672 8.42666 354.667 9.664C352.661 10.9013 351.104 12.672 349.995 14.976C348.885 17.2373 348.331 19.968 348.331 23.168C348.331 26.3253 348.885 29.056 349.995 31.36C351.104 33.664 352.661 35.456 354.667 36.736C356.672 37.9733 359.019 38.592 361.707 38.592ZM391.222 45.568V0.767998H406.198C411.403 0.767998 415.691 1.70667 419.062 3.584C422.475 5.41867 424.993 8.02133 426.614 11.392C428.278 14.72 429.11 18.6453 429.11 23.168C429.11 27.6907 428.278 31.6373 426.614 35.008C424.993 38.336 422.497 40.9387 419.126 42.816C415.755 44.6507 411.446 45.568 406.198 45.568H391.222ZM399.862 38.144H405.75C409.419 38.144 412.299 37.5467 414.39 36.352C416.523 35.1573 418.038 33.4507 418.934 31.232C419.83 28.9707 420.278 26.2827 420.278 23.168C420.278 20.0107 419.83 17.3227 418.934 15.104C418.038 12.8427 416.523 11.1147 414.39 9.92C412.299 8.72533 409.419 8.128 405.75 8.128H399.862V38.144ZM456.12 46.336C451.853 46.336 448.141 45.3973 444.984 43.52C441.827 41.6 439.373 38.9333 437.624 35.52C435.875 32.064 435 28.0533 435 23.488C435 18.88 435.896 14.8267 437.688 11.328C439.48 7.78667 442.061 5.01333 445.432 3.008C448.803 1.00267 452.835 0 457.528 0C462.776 0 467.128 1.25867 470.584 3.776C474.083 6.29333 476.344 9.792 477.368 14.272H467.704C467.064 12.3093 465.869 10.7733 464.12 9.664C462.413 8.512 460.195 7.936 457.464 7.936C454.563 7.936 452.088 8.576 450.04 9.856C447.992 11.136 446.435 12.928 445.368 15.232C444.301 17.536 443.768 20.288 443.768 23.488C443.768 26.7307 444.301 29.4827 445.368 31.744C446.435 34.0053 447.949 35.7333 449.912 36.928C451.917 38.08 454.264 38.656 456.952 38.656C460.877 38.656 463.843 37.6107 465.848 35.52C467.896 33.3867 469.112 30.6347 469.496 27.264H458.488V20.8H478.2V45.568H470.2L469.56 39.872C468.621 41.28 467.512 42.4747 466.232 43.456C464.995 44.3947 463.544 45.0987 461.88 45.568C460.216 46.08 458.296 46.336 456.12 46.336ZM486.285 45.568V0.767998H515.725V7.744H494.925V19.456H513.805V26.176H494.925V38.592H515.725V45.568H486.285ZM539.021 46.336C535.778 46.336 532.877 45.7813 530.317 44.672C527.8 43.5627 525.794 41.9413 524.301 39.808C522.85 37.6747 522.104 35.0933 522.061 32.064H531.213C531.256 33.3867 531.597 34.5813 532.237 35.648C532.877 36.7147 533.752 37.568 534.861 38.208C536.013 38.8053 537.378 39.104 538.957 39.104C540.322 39.104 541.496 38.8907 542.477 38.464C543.501 37.9947 544.29 37.3547 544.845 36.544C545.4 35.7333 545.677 34.7733 545.677 33.664C545.677 32.384 545.357 31.3173 544.717 30.464C544.12 29.6107 543.266 28.8853 542.157 28.288C541.09 27.6907 539.832 27.1573 538.381 26.688C536.973 26.176 535.48 25.6427 533.901 25.088C530.36 23.936 527.65 22.4 525.773 20.48C523.938 18.56 523.021 16.0213 523.021 12.864C523.021 10.176 523.661 7.872 524.941 5.952C526.264 4.032 528.077 2.56 530.381 1.536C532.685 0.512 535.309 0 538.253 0C541.282 0 543.928 0.533333 546.189 1.6C548.493 2.624 550.306 4.11733 551.629 6.08C552.994 8.04266 553.698 10.3467 553.741 12.992H544.525C544.482 12.0107 544.184 11.0933 543.629 10.24C543.117 9.344 542.392 8.64 541.453 8.128C540.514 7.57333 539.405 7.296 538.125 7.296C537.016 7.25333 535.992 7.424 535.053 7.808C534.157 8.192 533.432 8.768 532.877 9.536C532.365 10.2613 532.109 11.1787 532.109 12.288C532.109 13.3547 532.365 14.2507 532.877 14.976C533.432 15.7013 534.178 16.3413 535.117 16.896C536.056 17.408 537.165 17.8987 538.445 18.368C539.725 18.7947 541.112 19.2427 542.605 19.712C544.824 20.48 546.872 21.3973 548.749 22.464C550.626 23.488 552.12 24.832 553.229 26.496C554.338 28.16 554.893 30.3573 554.893 33.088C554.893 35.4347 554.274 37.6107 553.037 39.616C551.8 41.6213 550.008 43.2427 547.661 44.48C545.357 45.7173 542.477 46.336 539.021 46.336Z" fill="#F5F5F5"/>
<path d="M565.934 45.888C564.313 45.888 563.011 45.4187 562.03 44.48C561.049 43.4987 560.558 42.304 560.558 40.896C560.558 39.488 561.049 38.3147 562.03 37.376C563.011 36.3947 564.313 35.904 565.934 35.904C567.47 35.904 568.729 36.3947 569.71 37.376C570.691 38.3147 571.182 39.488 571.182 40.896C571.182 42.304 570.691 43.4987 569.71 44.48C568.729 45.4187 567.47 45.888 565.934 45.888Z" fill="#F1663F"/>
<path d="M5.82606 85.568V70.168H11.0841C12.3161 70.168 13.3281 70.3733 14.1201 70.784C14.9121 71.1947 15.4987 71.7447 15.8801 72.434C16.2614 73.1233 16.4521 73.908 16.4521 74.788C16.4521 75.624 16.2614 76.394 15.8801 77.098C15.5134 77.7873 14.9341 78.3447 14.1421 78.77C13.3501 79.1807 12.3307 79.386 11.0841 79.386H8.02606V85.568H5.82606ZM8.02606 77.56H10.9961C12.1547 77.56 12.9761 77.3107 13.4601 76.812C13.9587 76.2987 14.2081 75.624 14.2081 74.788C14.2081 73.8933 13.9587 73.204 13.4601 72.72C12.9761 72.236 12.1547 71.994 10.9961 71.994H8.02606V77.56ZM25.7541 85.832C24.2728 85.832 22.9674 85.502 21.8381 84.842C20.7234 84.1673 19.8434 83.236 19.1981 82.048C18.5674 80.8453 18.2521 79.452 18.2521 77.868C18.2521 76.2987 18.5674 74.92 19.1981 73.732C19.8434 72.5293 20.7234 71.5907 21.8381 70.916C22.9674 70.2413 24.2728 69.904 25.7541 69.904C27.2648 69.904 28.5848 70.2413 29.7141 70.916C30.8434 71.5907 31.7161 72.5293 32.3321 73.732C32.9628 74.92 33.2781 76.2987 33.2781 77.868C33.2781 79.452 32.9628 80.8453 32.3321 82.048C31.7161 83.236 30.8434 84.1673 29.7141 84.842C28.5848 85.502 27.2648 85.832 25.7541 85.832ZM25.7761 83.874C26.8321 83.874 27.7561 83.632 28.5481 83.148C29.3401 82.664 29.9488 81.9747 30.3741 81.08C30.8141 80.1853 31.0341 79.1147 31.0341 77.868C31.0341 76.6213 30.8141 75.5507 30.3741 74.656C29.9488 73.7613 29.3401 73.0793 28.5481 72.61C27.7561 72.126 26.8321 71.884 25.7761 71.884C24.7201 71.884 23.7961 72.126 23.0041 72.61C22.2121 73.0793 21.5961 73.7613 21.1561 74.656C20.7161 75.5507 20.4961 76.6213 20.4961 77.868C20.4961 79.1147 20.7161 80.1853 21.1561 81.08C21.5961 81.9747 22.2121 82.664 23.0041 83.148C23.7961 83.632 24.7201 83.874 25.7761 83.874ZM38.4701 85.568L34.2901 70.168H36.6441L39.7681 82.994L43.3541 70.168H45.7961L49.2721 83.038L52.4401 70.168H54.7941L50.5481 85.568H47.9741L44.5201 73.314L40.9781 85.568H38.4701ZM56.9804 85.568V70.168H66.7044V71.972H59.1804V76.9H66.0444V78.66H59.1804V83.764H66.7044V85.568H56.9804ZM69.5487 85.568V70.168H74.7627C75.9801 70.168 76.9774 70.3733 77.7547 70.784C78.5321 71.1947 79.1041 71.7447 79.4707 72.434C79.8521 73.1087 80.0427 73.8787 80.0427 74.744C80.0427 75.5653 79.8521 76.328 79.4707 77.032C79.1041 77.7213 78.5247 78.2787 77.7327 78.704C76.9407 79.1147 75.9287 79.32 74.6967 79.32H71.7487V85.568H69.5487ZM77.6447 85.568L74.3227 78.726H76.7427L80.1967 85.568H77.6447ZM71.7487 77.648H74.6087C75.6941 77.648 76.4934 77.384 77.0067 76.856C77.5201 76.3133 77.7767 75.624 77.7767 74.788C77.7767 73.9373 77.5274 73.2627 77.0287 72.764C76.5301 72.2653 75.7234 72.016 74.6087 72.016H71.7487V77.648ZM82.8905 85.568V70.168H92.6145V71.972H85.0905V76.9H91.9545V78.66H85.0905V83.764H92.6145V85.568H82.8905ZM95.4589 85.568V70.168H100.189C101.978 70.168 103.46 70.4833 104.633 71.114C105.806 71.7447 106.672 72.6393 107.229 73.798C107.801 74.942 108.087 76.306 108.087 77.89C108.087 79.474 107.801 80.838 107.229 81.982C106.672 83.126 105.806 84.0133 104.633 84.644C103.474 85.26 101.993 85.568 100.189 85.568H95.4589ZM97.6589 83.72H100.101C101.524 83.72 102.653 83.4853 103.489 83.016C104.325 82.5467 104.919 81.8793 105.271 81.014C105.638 80.134 105.821 79.0927 105.821 77.89C105.821 76.6727 105.638 75.624 105.271 74.744C104.919 73.864 104.325 73.1893 103.489 72.72C102.653 72.2507 101.524 72.016 100.101 72.016H97.6589V83.72ZM116.363 85.568V70.168H122.061C123.132 70.168 124.027 70.344 124.745 70.696C125.464 71.0333 125.999 71.5027 126.351 72.104C126.718 72.6907 126.901 73.358 126.901 74.106C126.901 74.8833 126.733 75.536 126.395 76.064C126.058 76.592 125.611 77.0027 125.053 77.296C124.511 77.5747 123.924 77.736 123.293 77.78L123.601 77.56C124.276 77.5747 124.892 77.758 125.449 78.11C126.007 78.4473 126.447 78.902 126.769 79.474C127.092 80.046 127.253 80.6767 127.253 81.366C127.253 82.158 127.063 82.8767 126.681 83.522C126.3 84.1527 125.735 84.6513 124.987 85.018C124.239 85.3847 123.323 85.568 122.237 85.568H116.363ZM118.563 83.742H121.951C122.919 83.742 123.667 83.522 124.195 83.082C124.738 82.6273 125.009 81.9893 125.009 81.168C125.009 80.3613 124.731 79.716 124.173 79.232C123.631 78.748 122.875 78.506 121.907 78.506H118.563V83.742ZM118.563 76.812H121.819C122.743 76.812 123.447 76.5993 123.931 76.174C124.415 75.734 124.657 75.1327 124.657 74.37C124.657 73.6367 124.415 73.0573 123.931 72.632C123.447 72.192 122.721 71.972 121.753 71.972H118.563V76.812ZM133.083 85.568V79.848L128.001 70.168H130.487L134.469 78.264H133.919L137.879 70.168H140.343L135.283 79.848V85.568H133.083ZM151.619 85.832C150.665 85.832 149.844 85.656 149.155 85.304C148.465 84.9373 147.93 84.4093 147.549 83.72C147.167 83.0307 146.977 82.2093 146.977 81.256H149.199C149.199 81.7547 149.279 82.202 149.441 82.598C149.602 82.994 149.851 83.3093 150.189 83.544C150.541 83.764 151.003 83.874 151.575 83.874C152.147 83.874 152.594 83.764 152.917 83.544C153.254 83.324 153.496 83.0307 153.643 82.664C153.789 82.2827 153.863 81.85 153.863 81.366V70.168H156.063V81.366C156.063 82.7887 155.667 83.8887 154.875 84.666C154.083 85.4433 152.997 85.832 151.619 85.832ZM164.943 85.832C163.858 85.832 162.875 85.6193 161.995 85.194C161.115 84.754 160.411 84.094 159.883 83.214C159.37 82.3193 159.113 81.1827 159.113 79.804V70.168H161.313V79.826C161.313 80.75 161.467 81.5127 161.775 82.114C162.083 82.7007 162.509 83.1407 163.051 83.434C163.609 83.7127 164.254 83.852 164.987 83.852C165.735 83.852 166.381 83.7127 166.923 83.434C167.466 83.1407 167.884 82.7007 168.177 82.114C168.485 81.5127 168.639 80.75 168.639 79.826V70.168H170.839V79.804C170.839 81.1827 170.575 82.3193 170.047 83.214C169.519 84.094 168.808 84.754 167.913 85.194C167.019 85.6193 166.029 85.832 164.943 85.832ZM173.898 85.568V70.168H176.098L183.952 81.982V70.168H186.152V85.568H183.952L176.098 73.776V85.568H173.898ZM196.033 85.832C194.581 85.832 193.312 85.502 192.227 84.842C191.142 84.182 190.298 83.258 189.697 82.07C189.096 80.882 188.795 79.496 188.795 77.912C188.795 76.3427 189.096 74.9567 189.697 73.754C190.313 72.5513 191.186 71.6127 192.315 70.938C193.459 70.2487 194.808 69.904 196.363 69.904C198.108 69.904 199.568 70.3293 200.741 71.18C201.914 72.016 202.67 73.182 203.007 74.678H200.499C200.279 73.8273 199.817 73.16 199.113 72.676C198.409 72.1773 197.485 71.928 196.341 71.928C195.256 71.928 194.31 72.17 193.503 72.654C192.711 73.138 192.102 73.8273 191.677 74.722C191.252 75.6167 191.039 76.68 191.039 77.912C191.039 79.1587 191.252 80.2293 191.677 81.124C192.102 82.0187 192.704 82.7007 193.481 83.17C194.258 83.6393 195.153 83.874 196.165 83.874C197.72 83.874 198.886 83.4267 199.663 82.532C200.455 81.6373 200.917 80.442 201.049 78.946H196.803V77.252H203.271V85.568H201.269L201.071 83.214C200.719 83.786 200.308 84.27 199.839 84.666C199.384 85.0473 198.849 85.3407 198.233 85.546C197.617 85.7367 196.884 85.832 196.033 85.832ZM206.168 85.568V70.168H208.368V83.83H215.408V85.568H206.168ZM223.496 85.832C222.015 85.832 220.71 85.502 219.58 84.842C218.466 84.1673 217.586 83.236 216.94 82.048C216.31 80.8453 215.994 79.452 215.994 77.868C215.994 76.2987 216.31 74.92 216.94 73.732C217.586 72.5293 218.466 71.5907 219.58 70.916C220.71 70.2413 222.015 69.904 223.496 69.904C225.007 69.904 226.327 70.2413 227.456 70.916C228.586 71.5907 229.458 72.5293 230.074 73.732C230.705 74.92 231.02 76.2987 231.02 77.868C231.02 79.452 230.705 80.8453 230.074 82.048C229.458 83.236 228.586 84.1673 227.456 84.842C226.327 85.502 225.007 85.832 223.496 85.832ZM223.518 83.874C224.574 83.874 225.498 83.632 226.29 83.148C227.082 82.664 227.691 81.9747 228.116 81.08C228.556 80.1853 228.776 79.1147 228.776 77.868C228.776 76.6213 228.556 75.5507 228.116 74.656C227.691 73.7613 227.082 73.0793 226.29 72.61C225.498 72.126 224.574 71.884 223.518 71.884C222.462 71.884 221.538 72.126 220.746 72.61C219.954 73.0793 219.338 73.7613 218.898 74.656C218.458 75.5507 218.238 76.6213 218.238 77.868C218.238 79.1147 218.458 80.1853 218.898 81.08C219.338 81.9747 219.954 82.664 220.746 83.148C221.538 83.632 222.462 83.874 223.518 83.874ZM233.668 85.568V70.168H238.882C240.099 70.168 241.097 70.3733 241.874 70.784C242.651 71.1947 243.223 71.7447 243.59 72.434C243.971 73.1087 244.162 73.8787 244.162 74.744C244.162 75.5653 243.971 76.328 243.59 77.032C243.223 77.7213 242.644 78.2787 241.852 78.704C241.06 79.1147 240.048 79.32 238.816 79.32H235.868V85.568H233.668ZM241.764 85.568L238.442 78.726H240.862L244.316 85.568H241.764ZM235.868 77.648H238.728C239.813 77.648 240.613 77.384 241.126 76.856C241.639 76.3133 241.896 75.624 241.896 74.788C241.896 73.9373 241.647 73.2627 241.148 72.764C240.649 72.2653 239.843 72.016 238.728 72.016H235.868V77.648ZM247.01 85.568V70.168H256.734V71.972H249.21V76.9H256.074V78.66H249.21V83.764H256.734V85.568H247.01Z" fill="#F5F5F5" fill-opacity="0.9"/>
</svg>
